<svg width="20" height="20" viewBox="0 0 20 20" fill="none" xmlns="http://www.w3.org/2000/svg">
<path d="M14.5 15.5V17.5C14.5 17.6333 14.55 17.75 14.65 17.85C14.75 17.95 14.8667 18 15 18C15.1333 18 15.25 17.95 15.35 17.85C15.45 17.75 15.5 17.6333 15.5 17.5V15.5H17.5C17.6333 15.5 17.75 15.45 17.85 15.35C17.95 15.25 18 15.1333 18 15C18 14.8667 17.95 14.75 17.85 14.65C17.75 14.55 17.6333 14.5 17.5 14.5H15.5V12.5C15.5 12.3667 15.45 12.25 15.35 12.15C15.25 12.05 15.1333 12 15 12C14.8667 12 14.75 12.05 14.65 12.15C14.55 12.25 14.5 12.3667 14.5 12.5V14.5H12.5C12.3667 14.5 12.25 14.55 12.15 14.65C12.05 14.75 12 14.8667 12 15C12 15.1333 12.05 15.25 12.15 15.35C12.25 15.45 12.3667 15.5 12.5 15.5H14.5ZM15 20C13.6167 20 12.4377 19.5127 11.463 18.538C10.4877 17.5627 10 16.3833 10 15C10 13.6167 10.4877 12.4373 11.463 11.462C12.4377 10.4873 13.6167 10 15 10C16.3833 10 17.5627 10.4873 18.538 11.462C19.5127 12.4373 20 13.6167 20 15C20 16.3833 19.5127 17.5627 18.538 18.538C17.5627 19.5127 16.3833 20 15 20ZM5 6H13C13.2833 6 13.5207 5.904 13.712 5.712C13.904 5.52067 14 5.28333 14 5C14 4.71667 13.904 4.479 13.712 4.287C13.5207 4.09567 13.2833 4 13 4H5C4.71667 4 4.479 4.09567 4.287 4.287C4.09567 4.479 4 4.71667 4 5C4 5.28333 4.09567 5.52067 4.287 5.712C4.479 5.904 4.71667 6 5 6ZM8.675 18H2C1.45 18 0.979 17.8043 0.587 17.413C0.195667 17.021 0 16.55 0 16V2C0 1.45 0.195667 0.979 0.587 0.587C0.979 0.195667 1.45 0 2 0H16C16.55 0 17.021 0.195667 17.413 0.587C17.8043 0.979 18 1.45 18 2V8.7C17.5167 8.46667 17.0293 8.29167 16.538 8.175C16.046 8.05833 15.5333 8 15 8C14.8167 8 14.646 8.004 14.488 8.012C14.3293 8.02067 14.1667 8.04167 14 8.075C13.85 8.04167 13.6833 8.02067 13.5 8.012C13.3167 8.004 13.15 8 13 8H5C4.71667 8 4.479 8.09567 4.287 8.287C4.09567 8.479 4 8.71667 4 9C4 9.28333 4.09567 9.52067 4.287 9.712C4.479 9.904 4.71667 10 5 10H10.125C9.825 10.2833 9.554 10.5917 9.312 10.925C9.07067 11.2583 8.85833 11.6167 8.675 12H5C4.71667 12 4.479 12.0957 4.287 12.287C4.09567 12.479 4 12.7167 4 13C4 13.2833 4.09567 13.5207 4.287 13.712C4.479 13.904 4.71667 14 5 14H8.075C8.04167 14.1667 8.02067 14.3293 8.012 14.488C8.004 14.646 8 14.8167 8 15C8 15.55 8.05 16.0627 8.15 16.538C8.25 17.0127 8.425 17.5 8.675 18Z" fill="white"/>
</svg>
