<svg width="32" height="32" viewBox="0 0 32 32" fill="none" xmlns="http://www.w3.org/2000/svg">
<rect width="32" height="32" rx="16" fill="#ABABAB"/>
<mask id="mask0_1820_7624" style="mask-type:alpha" maskUnits="userSpaceOnUse" x="8" y="8" width="16" height="16">
<rect x="8" y="8" width="16" height="16" fill="#D9D9D9"/>
</mask>
<g mask="url(#mask0_1820_7624)">
<path d="M16 19.6667C16.8333 19.6667 17.5418 19.3751 18.1253 18.792C18.7084 18.2084 19 17.5 19 16.6667C19 15.8333 18.7084 15.1249 18.1253 14.5413C17.5418 13.9582 16.8333 13.6667 16 13.6667C15.1666 13.6667 14.4582 13.9582 13.8746 14.5413C13.2915 15.1249 13 15.8333 13 16.6667C13 17.5 13.2915 18.2084 13.8746 18.792C14.4582 19.3751 15.1666 19.6667 16 19.6667ZM10.6666 22C10.3 22 9.9862 21.8696 9.72531 21.6087C9.46398 21.3473 9.33331 21.0333 9.33331 20.6667V12.6667C9.33331 12.3 9.46398 11.9862 9.72531 11.7253C9.9862 11.464 10.3 11.3333 10.6666 11.3333H12.7666L13.6 10.4333C13.7222 10.2889 13.8693 10.1804 14.0413 10.108C14.2138 10.036 14.3944 10 14.5833 10H17.4166C17.6055 10 17.7862 10.036 17.9586 10.108C18.1306 10.1804 18.2778 10.2889 18.4 10.4333L19.2333 11.3333H21.3333C21.7 11.3333 22.014 11.464 22.2753 11.7253C22.5362 11.9862 22.6666 12.3 22.6666 12.6667V20.6667C22.6666 21.0333 22.5362 21.3473 22.2753 21.6087C22.014 21.8696 21.7 22 21.3333 22H10.6666Z" fill="white"/>
</g>
</svg>
