<svg width="13" height="22" viewBox="0 0 13 22" fill="none" xmlns="http://www.w3.org/2000/svg">
  <path d="M0.7498 20.5C0.3998 20.15 0.2248 19.7207 0.2248 19.212C0.2248 18.704 0.3998 18.275 0.7498 17.925L7.6748 11L0.7248 4.05001C0.3748 3.70001 0.1958 3.27501 0.1878 2.77501C0.179134 2.27501 0.358133 1.84168 0.7248 1.47501C1.0748 1.12501 1.5038 0.950012 2.0118 0.950012C2.52047 0.950012 2.9498 1.12501 3.2998 1.47501L11.7248 9.90001C11.8748 10.05 11.9871 10.2207 12.0618 10.412C12.1371 10.604 12.1748 10.8 12.1748 11C12.1748 11.2 12.1371 11.3957 12.0618 11.587C11.9871 11.779 11.8748 11.95 11.7248 12.1L3.2998 20.525C2.9498 20.875 2.52913 21.05 2.0378 21.05C1.5458 21.05 1.11647 20.8667 0.7498 20.5Z" fill="#ABABAB"/>
  </svg>
  