<svg width="16" height="16" viewBox="0 0 16 16" fill="none" xmlns="http://www.w3.org/2000/svg">
  <mask id="mask0_2465_18847" style="mask-type:alpha" maskUnits="userSpaceOnUse" x="0" y="0"
    width="16" height="16">
    <rect width="16" height="16" fill="#D9D9D9" />
  </mask>
  <g mask="url(#mask0_2465_18847)">
    <path
      d="M7.99922 13.05C7.71033 13.05 7.46322 12.9471 7.25788 12.7413C7.05211 12.536 6.94922 12.2888 6.94922 12V9.04995H3.99922C3.71033 9.04995 3.46322 8.94706 3.25789 8.74128C3.05211 8.53595 2.94922 8.28884 2.94922 7.99995C2.94922 7.71106 3.05211 7.46373 3.25789 7.25795C3.46322 7.05262 3.71033 6.94995 3.99922 6.94995H6.94922V3.99995C6.94922 3.71106 7.05211 3.46373 7.25788 3.25795C7.46322 3.05262 7.71033 2.94995 7.99922 2.94995C8.28811 2.94995 8.53544 3.05262 8.74122 3.25795C8.94655 3.46373 9.04922 3.71106 9.04922 3.99995V6.94995H11.9992C12.2881 6.94995 12.5354 7.05262 12.7412 7.25795C12.9466 7.46373 13.0492 7.71106 13.0492 7.99995C13.0492 8.28884 12.9466 8.53595 12.7412 8.74128C12.5354 8.94706 12.2881 9.04995 11.9992 9.04995H9.04922V12C9.04922 12.2888 8.94655 12.536 8.74122 12.7413C8.53544 12.9471 8.28811 13.05 7.99922 13.05Z"
      fill="#910D10" />
  </g>
</svg>