<svg width="24" height="16" viewBox="0 0 24 16" fill="none" xmlns="http://www.w3.org/2000/svg">
  <path d="M12.5 7.95C12.9833 7.41667 13.3543 6.80833 13.613 6.125C13.871 5.44167 14 4.73333 14 4C14 3.26667 13.871 2.55833 13.613 1.875C13.3543 1.19167 12.9833 0.583334 12.5 0.0500002C13.5 0.183334 14.3333 0.625 15 1.375C15.6667 2.125 16 3 16 4C16 5 15.6667 5.875 15 6.625C14.3333 7.375 13.5 7.81667 12.5 7.95ZM17.525 16C17.675 15.8833 17.7917 15.7373 17.875 15.562C17.9583 15.3873 18 15.1917 18 14.975V13C18 12.4 17.8667 11.8293 17.6 11.288C17.3333 10.746 16.9833 10.2667 16.55 9.85C17.4 10.15 18.1877 10.5373 18.913 11.012C19.6377 11.4873 20 12.15 20 13V15C20 15.2833 19.904 15.5207 19.712 15.712C19.5207 15.904 19.2833 16 19 16H17.525ZM21 9C20.7167 9 20.4793 8.904 20.288 8.712C20.096 8.52067 20 8.28333 20 8V7H19C18.7167 7 18.4793 6.904 18.288 6.712C18.096 6.52067 18 6.28333 18 6C18 5.71667 18.096 5.479 18.288 5.287C18.4793 5.09567 18.7167 5 19 5H20V4C20 3.71667 20.096 3.479 20.288 3.287C20.4793 3.09567 20.7167 3 21 3C21.2833 3 21.5207 3.09567 21.712 3.287C21.904 3.479 22 3.71667 22 4V5H23C23.2833 5 23.5207 5.09567 23.712 5.287C23.904 5.479 24 5.71667 24 6C24 6.28333 23.904 6.52067 23.712 6.712C23.5207 6.904 23.2833 7 23 7H22V8C22 8.28333 21.904 8.52067 21.712 8.712C21.5207 8.904 21.2833 9 21 9ZM8 8C6.9 8 5.95833 7.60833 5.175 6.825C4.39167 6.04167 4 5.1 4 4C4 2.9 4.39167 1.95833 5.175 1.175C5.95833 0.391667 6.9 0 8 0C9.1 0 10.0417 0.391667 10.825 1.175C11.6083 1.95833 12 2.9 12 4C12 5.1 11.6083 6.04167 10.825 6.825C10.0417 7.60833 9.1 8 8 8ZM1 16C0.716667 16 0.479333 15.904 0.288 15.712C0.096 15.5207 0 15.2833 0 15V13.2C0 12.6333 0.146 12.1123 0.438 11.637C0.729333 11.1623 1.11667 10.8 1.6 10.55C2.63333 10.0333 3.68333 9.64567 4.75 9.387C5.81667 9.129 6.9 9 8 9C9.1 9 10.1833 9.129 11.25 9.387C12.3167 9.64567 13.3667 10.0333 14.4 10.55C14.8833 10.8 15.2707 11.1623 15.562 11.637C15.854 12.1123 16 12.6333 16 13.2V15C16 15.2833 15.9043 15.5207 15.713 15.712C15.521 15.904 15.2833 16 15 16H1Z" fill="white"/>
</svg>
  