<svg width="12" height="12" viewBox="0 0 12 12" fill="none" xmlns="http://www.w3.org/2000/svg">
  <path d="M5.99971 11.05C5.71082 11.05 5.46371 10.9471 5.25837 10.7413C5.0526 10.536 4.94971 10.2889 4.94971 10V7.05001H1.99971C1.71082 7.05001 1.46371 6.94712 1.25837 6.74135C1.0526 6.53601 0.949707 6.2889 0.949707 6.00001C0.949707 5.71112 1.0526 5.46379 1.25837 5.25801C1.46371 5.05268 1.71082 4.95001 1.99971 4.95001H4.94971V2.00001C4.94971 1.71112 5.0526 1.46379 5.25837 1.25801C5.46371 1.05268 5.71082 0.950012 5.99971 0.950012C6.2886 0.950012 6.53593 1.05268 6.74171 1.25801C6.94704 1.46379 7.04971 1.71112 7.04971 2.00001V4.95001H9.99971C10.2886 4.95001 10.5359 5.05268 10.7417 5.25801C10.947 5.46379 11.0497 5.71112 11.0497 6.00001C11.0497 6.2889 10.947 6.53601 10.7417 6.74135C10.5359 6.94712 10.2886 7.05001 9.99971 7.05001H7.04971V10C7.04971 10.2889 6.94704 10.536 6.74171 10.7413C6.53593 10.9471 6.2886 11.05 5.99971 11.05Z" fill="white"/>
</svg>
  