<svg width="24" height="25" viewBox="0 0 24 25" fill="none" xmlns="http://www.w3.org/2000/svg">
  <mask id="mask0_2461_18555" style="mask-type:alpha" maskUnits="userSpaceOnUse" x="0" y="0"
    width="24" height="25">
    <rect x="24" y="24.5" width="24" height="24" transform="rotate(-180 24 24.5)" fill="#D9D9D9" />
  </mask>
  <g mask="url(#mask0_2461_18555)">
    <path
      d="M12.0003 9.54999C12.1336 9.54999 12.2586 9.57099 12.3753 9.61299C12.492 9.65433 12.6003 9.72499 12.7003 9.82499L17.3253 14.45C17.5086 14.6333 17.596 14.8627 17.5873 15.138C17.5793 15.4127 17.4836 15.6417 17.3003 15.825C17.117 16.0083 16.8836 16.1 16.6003 16.1C16.317 16.1 16.0836 16.0083 15.9003 15.825L12.0003 11.925L8.0753 15.85C7.89197 16.0333 7.66264 16.121 7.3873 16.113C7.11264 16.1043 6.88364 16.0083 6.7003 15.825C6.51697 15.6417 6.4253 15.4083 6.4253 15.125C6.4253 14.8417 6.51697 14.6083 6.7003 14.425L11.3003 9.82499C11.4003 9.72499 11.5086 9.65433 11.6253 9.61299C11.742 9.57099 11.867 9.54999 12.0003 9.54999Z"
      fill="#74717A" />
  </g>
</svg>
  