<svg width="16" height="16" viewBox="0 0 16 16" fill="none" xmlns="http://www.w3.org/2000/svg">
  <mask id="mask0_2321_8470" style="mask-type:alpha" maskUnits="userSpaceOnUse" x="0" y="0" width="16" height="16">
  <rect width="16" height="16" fill="#D9D9D9"/>
  </mask>
  <g mask="url(#mask0_2321_8470)">
  <path d="M8.00022 10.1666C7.88911 10.1666 7.78066 10.1471 7.67488 10.108C7.56955 10.0693 7.47244 10.0055 7.38355 9.91664L4.30022 6.83331C4.13355 6.67775 4.05311 6.47775 4.05888 6.23331C4.06422 5.98886 4.15022 5.78331 4.31688 5.61664C4.48355 5.44998 4.68911 5.36664 4.93355 5.36664C5.178 5.36664 5.38355 5.44998 5.55022 5.61664L8.00022 8.06664L10.4669 5.59998C10.6336 5.43331 10.8364 5.35264 11.0756 5.35798C11.3142 5.36375 11.5169 5.44998 11.6835 5.61664C11.8502 5.78331 11.9335 5.99153 11.9335 6.24131C11.9335 6.49153 11.8502 6.69442 11.6835 6.84997L8.61688 9.91664C8.528 10.0055 8.43088 10.0693 8.32555 10.108C8.21977 10.1471 8.11133 10.1666 8.00022 10.1666Z" fill="white"/>
  </g>
</svg>
  