<svg width="6" height="8" viewBox="0 0 6 8" fill="none" xmlns="http://www.w3.org/2000/svg">
  <path d="M5.69999 4.00002C5.69999 4.11113 5.67777 4.22224 5.63333 4.33335C5.58888 4.44446 5.52777 4.53891 5.44999 4.61668L2.38333 7.68335C2.21666 7.85002 2.0111 7.93335 1.76666 7.93335C1.52222 7.93335 1.31666 7.85002 1.14999 7.68335C0.983327 7.51668 0.899994 7.31113 0.899994 7.06668C0.899994 6.82224 0.983327 6.61668 1.14999 6.45002L3.59999 4.00002L1.14999 1.55002C0.983327 1.38335 0.899994 1.17779 0.899994 0.93335C0.899994 0.688905 0.983327 0.48335 1.14999 0.316683C1.31666 0.150017 1.52222 0.0666833 1.76666 0.0666833C2.0111 0.0666833 2.21666 0.150017 2.38333 0.316683L5.44999 3.38335C5.53888 3.47224 5.60266 3.56935 5.64133 3.67468C5.68044 3.78046 5.69999 3.88891 5.69999 4.00002Z" fill="#ABABAB"/>
</svg>
  