<svg width="13" height="22" viewBox="0 0 13 22" fill="none" xmlns="http://www.w3.org/2000/svg">
<path d="M9.7499 20.5L1.3249 12.1C1.1749 11.95 1.06657 11.779 0.999902 11.587C0.933236 11.3957 0.899902 11.2 0.899902 11C0.899902 10.8 0.933236 10.604 0.999902 10.412C1.06657 10.2207 1.1749 10.05 1.3249 9.90002L9.7499 1.47502C10.0999 1.12502 10.5292 0.94569 11.0379 0.937024C11.5459 0.929024 11.9832 1.10836 12.3499 1.47502C12.6999 1.82502 12.8749 2.25402 12.8749 2.76202C12.8749 3.27069 12.6999 3.70002 12.3499 4.05002L5.3999 11L12.3499 17.95C12.6999 18.3 12.8749 18.7207 12.8749 19.212C12.8749 19.704 12.6916 20.1334 12.3249 20.5C11.9749 20.85 11.5459 21.025 11.0379 21.025C10.5292 21.025 10.0999 20.85 9.7499 20.5Z" fill="#4E5064"/>
</svg>
