<svg width="24" height="24" viewBox="0 0 24 24" fill="none" xmlns="http://www.w3.org/2000/svg">
<mask id="mask0_2518_40541" style="mask-type:alpha" maskUnits="userSpaceOnUse" x="0" y="0" width="24" height="24">
<rect width="24" height="24" fill="#D9D9D9"/>
</mask>
<g mask="url(#mask0_2518_40541)">
<path d="M11.9996 13.85L7.32461 18.525C7.07461 18.775 6.76628 18.9 6.39961 18.9C6.03294 18.9 5.72461 18.775 5.47461 18.525C5.22461 18.275 5.09961 17.9666 5.09961 17.6C5.09961 17.2333 5.22461 16.925 5.47461 16.675L10.1496 12L5.47461 7.32498C5.22461 7.07498 5.09961 6.76664 5.09961 6.39998C5.09961 6.03331 5.22461 5.72498 5.47461 5.47498C5.72461 5.22498 6.03294 5.09998 6.39961 5.09998C6.76628 5.09998 7.07461 5.22498 7.32461 5.47498L11.9996 10.15L16.6746 5.47498C16.9246 5.22498 17.2329 5.09998 17.5996 5.09998C17.9663 5.09998 18.2746 5.22498 18.5246 5.47498C18.7746 5.72498 18.8996 6.03331 18.8996 6.39998C18.8996 6.76664 18.7746 7.07498 18.5246 7.32498L13.8496 12L18.5246 16.675C18.7746 16.925 18.8996 17.2333 18.8996 17.6C18.8996 17.9666 18.7746 18.275 18.5246 18.525C18.2746 18.775 17.9663 18.9 17.5996 18.9C17.2329 18.9 16.9246 18.775 16.6746 18.525L11.9996 13.85Z" fill="#4E5064"/>
</g>
</svg>
