<svg width="16" height="16" viewBox="0 0 16 16" fill="none" xmlns="http://www.w3.org/2000/svg">
  <mask id="mask0_2684_17198" style="mask-type:alpha" maskUnits="userSpaceOnUse" x="0" y="0"
    width="16" height="16">
    <rect width="16" height="16" fill="#D9D9D9" />
  </mask>
  <g mask="url(#mask0_2684_17198)">
    <path
      d="M4.66602 14C4.29935 14 3.98557 13.8696 3.72468 13.6087C3.46335 13.3473 3.33268 13.0333 3.33268 12.6667V4C3.14379 4 2.98535 3.93622 2.85735 3.80867C2.72979 3.68067 2.66602 3.52222 2.66602 3.33333C2.66602 3.14444 2.72979 2.986 2.85735 2.858C2.98535 2.73044 3.14379 2.66667 3.33268 2.66667H5.99935C5.99935 2.47778 6.06335 2.31933 6.19135 2.19133C6.3189 2.06378 6.47713 2 6.66602 2H9.33268C9.52157 2 9.68002 2.06378 9.80802 2.19133C9.93557 2.31933 9.99935 2.47778 9.99935 2.66667H12.666C12.8549 2.66667 13.0131 2.73044 13.1407 2.858C13.2687 2.986 13.3327 3.14444 13.3327 3.33333C13.3327 3.52222 13.2687 3.68067 13.1407 3.80867C13.0131 3.93622 12.8549 4 12.666 4V12.6667C12.666 13.0333 12.5356 13.3473 12.2747 13.6087C12.0133 13.8696 11.6993 14 11.3327 14H4.66602ZM5.99935 10.6667C5.99935 10.8556 6.06335 11.0138 6.19135 11.1413C6.3189 11.2693 6.47713 11.3333 6.66602 11.3333C6.8549 11.3333 7.01335 11.2693 7.14135 11.1413C7.2689 11.0138 7.33268 10.8556 7.33268 10.6667V6C7.33268 5.81111 7.2689 5.65267 7.14135 5.52467C7.01335 5.39711 6.8549 5.33333 6.66602 5.33333C6.47713 5.33333 6.3189 5.39711 6.19135 5.52467C6.06335 5.65267 5.99935 5.81111 5.99935 6V10.6667ZM8.66602 10.6667C8.66602 10.8556 8.73002 11.0138 8.85802 11.1413C8.98557 11.2693 9.14379 11.3333 9.33268 11.3333C9.52157 11.3333 9.68002 11.2693 9.80802 11.1413C9.93557 11.0138 9.99935 10.8556 9.99935 10.6667V6C9.99935 5.81111 9.93557 5.65267 9.80802 5.52467C9.68002 5.39711 9.52157 5.33333 9.33268 5.33333C9.14379 5.33333 8.98557 5.39711 8.85802 5.52467C8.73002 5.65267 8.66602 5.81111 8.66602 6V10.6667Z"
      fill="#74717A" />
  </g>
</svg>
  