<svg width="16" height="16" viewBox="0 0 16 16" fill="none" xmlns="http://www.w3.org/2000/svg">
  <mask id="mask0_2298_6484" style="mask-type:alpha" maskUnits="userSpaceOnUse" x="0" y="0"
    width="16" height="16">
    <rect width="16" height="16" fill="#D9D9D9" />
  </mask>
  <g mask="url(#mask0_2298_6484)">
    <path
      d="M12.8667 5.95016L10.0333 3.15016L10.9667 2.21683C11.2222 1.96127 11.5362 1.8335 11.9087 1.8335C12.2807 1.8335 12.5944 1.96127 12.85 2.21683L13.7833 3.15016C14.0389 3.40572 14.1722 3.71416 14.1833 4.0755C14.1944 4.43638 14.0722 4.74461 13.8167 5.00016L12.8667 5.95016ZM2.66667 14.0002C2.47778 14.0002 2.31956 13.9362 2.192 13.8082C2.064 13.6806 2 13.5224 2 13.3335V11.4502C2 11.3613 2.01667 11.2753 2.05 11.1922C2.08333 11.1086 2.13333 11.0335 2.2 10.9668L9.06667 4.10016L11.9 6.9335L5.03333 13.8002C4.96667 13.8668 4.89178 13.9168 4.80867 13.9502C4.72511 13.9835 4.63889 14.0002 4.55 14.0002H2.66667Z"
      fill="#74717A" />
  </g>
</svg>
  