<svg width="13" height="13" viewBox="0 0 13 13" fill="none" xmlns="http://www.w3.org/2000/svg">
  <path
    d="M10.8667 4.95016L8.03333 2.15016L8.96667 1.21683C9.22222 0.961274 9.53622 0.833496 9.90867 0.833496C10.2807 0.833496 10.5944 0.961274 10.85 1.21683L11.7833 2.15016C12.0389 2.40572 12.1722 2.71416 12.1833 3.0755C12.1944 3.43638 12.0722 3.74461 11.8167 4.00016L10.8667 4.95016ZM0.666667 13.0002C0.477778 13.0002 0.319556 12.9362 0.192 12.8082C0.0640001 12.6806 0 12.5224 0 12.3335V10.4502C0 10.3613 0.0166667 10.2753 0.05 10.1922C0.0833334 10.1086 0.133333 10.0335 0.2 9.96683L7.06667 3.10016L9.9 5.9335L3.03333 12.8002C2.96667 12.8668 2.89178 12.9168 2.80867 12.9502C2.72511 12.9835 2.63889 13.0002 2.55 13.0002H0.666667Z"
    fill="black" />
</svg>