<svg width="25" height="24" viewBox="0 0 25 24" fill="none" xmlns="http://www.w3.org/2000/svg">
  <mask id="mask0_2518_64470" style="mask-type:alpha" maskUnits="userSpaceOnUse" x="0" y="0"
    width="25" height="24">
    <rect x="0.5" width="24" height="24" fill="#D9D9D9" />
  </mask>
  <g mask="url(#mask0_2518_64470)">
    <path
      d="M12.7 14L11.775 14.925C11.5917 15.1083 11.5 15.3417 11.5 15.625C11.5 15.9083 11.5917 16.1417 11.775 16.325C11.9583 16.5083 12.1917 16.6 12.475 16.6C12.7583 16.6 12.9917 16.5083 13.175 16.325L15.8 13.7C15.9833 13.5167 16.075 13.2833 16.075 13C16.075 12.7167 15.9833 12.4833 15.8 12.3L13.175 9.675C12.9917 9.49167 12.7583 9.4 12.475 9.4C12.1917 9.4 11.9583 9.49167 11.775 9.675C11.5917 9.85833 11.5 10.0917 11.5 10.375C11.5 10.6583 11.5917 10.8917 11.775 11.075L12.7 12H9.5C9.21667 12 8.97933 12.0957 8.788 12.287C8.596 12.479 8.5 12.7167 8.5 13C8.5 13.2833 8.596 13.5207 8.788 13.712C8.97933 13.904 9.21667 14 9.5 14H12.7ZM4.5 20C3.95 20 3.47933 19.8043 3.088 19.413C2.696 19.021 2.5 18.55 2.5 18V6C2.5 5.45 2.696 4.97933 3.088 4.588C3.47933 4.196 3.95 4 4.5 4H9.675C9.94167 4 10.196 4.05 10.438 4.15C10.6793 4.25 10.8917 4.39167 11.075 4.575L12.5 6H20.5C21.05 6 21.521 6.196 21.913 6.588C22.3043 6.97933 22.5 7.45 22.5 8V18C22.5 18.55 22.3043 19.021 21.913 19.413C21.521 19.8043 21.05 20 20.5 20H4.5Z"
      fill="#910D10" />
  </g>
</svg>
  