<svg width="13" height="12" viewBox="0 0 13 12" fill="none" xmlns="http://www.w3.org/2000/svg">
  <path d="M2.71671 12C2.39449 12 2.10849 11.8944 1.85871 11.6833C1.60849 11.4722 1.4556 11.2056 1.40004 10.8833L0.383377 4.78333C0.350044 4.58333 0.397377 4.40289 0.525377 4.242C0.652933 4.08067 0.822266 4 1.03338 4H11.4667C11.6778 4 11.8472 4.08067 11.9747 4.242C12.1027 4.40289 12.15 4.58333 12.1167 4.78333L11.1 10.8833C11.0445 11.2056 10.8918 11.4722 10.642 11.6833C10.3918 11.8944 10.1056 12 9.78338 12H2.71671ZM4.91671 8H7.58338C7.77227 8 7.93071 7.936 8.05871 7.808C8.18627 7.68044 8.25004 7.52222 8.25004 7.33333C8.25004 7.14444 8.18627 6.986 8.05871 6.858C7.93071 6.73044 7.77227 6.66667 7.58338 6.66667H4.91671C4.72782 6.66667 4.5696 6.73044 4.44204 6.858C4.31404 6.986 4.25004 7.14444 4.25004 7.33333C4.25004 7.52222 4.31404 7.68044 4.44204 7.808C4.5696 7.936 4.72782 8 4.91671 8ZM2.25004 3.33333C2.06116 3.33333 1.90271 3.26956 1.77471 3.142C1.64716 3.014 1.58338 2.85556 1.58338 2.66667C1.58338 2.47778 1.64716 2.31933 1.77471 2.19133C1.90271 2.06378 2.06116 2 2.25004 2H10.25C10.4389 2 10.5972 2.06378 10.7247 2.19133C10.8527 2.31933 10.9167 2.47778 10.9167 2.66667C10.9167 2.85556 10.8527 3.014 10.7247 3.142C10.5972 3.26956 10.4389 3.33333 10.25 3.33333H2.25004ZM3.58338 1.33333C3.39449 1.33333 3.23604 1.26933 3.10804 1.14133C2.98049 1.01378 2.91671 0.855556 2.91671 0.666667C2.91671 0.477778 2.98049 0.319333 3.10804 0.191333C3.23604 0.0637777 3.39449 0 3.58338 0H8.91671C9.1056 0 9.26382 0.0637777 9.39138 0.191333C9.51938 0.319333 9.58338 0.477778 9.58338 0.666667C9.58338 0.855556 9.51938 1.01378 9.39138 1.14133C9.26382 1.26933 9.1056 1.33333 8.91671 1.33333H3.58338Z" fill="#910D10"/>
</svg>
  