<svg width="4" height="16" viewBox="0 0 4 16" fill="none" xmlns="http://www.w3.org/2000/svg">
  <path d="M2 15.275C1.58333 15.275 1.22933 15.129 0.938 14.837C0.646 14.5456 0.5 14.1916 0.5 13.775C0.5 13.3583 0.646 13.004 0.938 12.712C1.22933 12.4206 1.58333 12.275 2 12.275C2.41667 12.275 2.77067 12.4206 3.062 12.712C3.354 13.004 3.5 13.3583 3.5 13.775C3.5 14.1916 3.354 14.5456 3.062 14.837C2.77067 15.129 2.41667 15.275 2 15.275ZM2 9.49998C1.58333 9.49998 1.22933 9.35398 0.938 9.06198C0.646 8.77064 0.5 8.41664 0.5 7.99998C0.5 7.58331 0.646 7.22931 0.938 6.93798C1.22933 6.64598 1.58333 6.49998 2 6.49998C2.41667 6.49998 2.77067 6.64598 3.062 6.93798C3.354 7.22931 3.5 7.58331 3.5 7.99998C3.5 8.41664 3.354 8.77064 3.062 9.06198C2.77067 9.35398 2.41667 9.49998 2 9.49998ZM2 3.72498C1.58333 3.72498 1.22933 3.57898 0.938 3.28698C0.646 2.99564 0.5 2.64164 0.5 2.22498C0.5 1.80831 0.646 1.45398 0.938 1.16198C1.22933 0.870643 1.58333 0.724976 2 0.724976C2.41667 0.724976 2.77067 0.870643 3.062 1.16198C3.354 1.45398 3.5 1.80831 3.5 2.22498C3.5 2.64164 3.354 2.99564 3.062 3.28698C2.77067 3.57898 2.41667 3.72498 2 3.72498Z" fill="#1C1B1F"/>
</svg>
  