<svg width="32" height="32" viewBox="0 0 32 32" fill="none" xmlns="http://www.w3.org/2000/svg">
  <mask id="mask0_2274_6866" style="mask-type:alpha" maskUnits="userSpaceOnUse" x="0" y="0" width="32" height="32">
  <rect width="32" height="32" fill="#D9D9D9"/>
  </mask>
  <g mask="url(#mask0_2274_6866)">
  <path d="M15.9987 21.3332C15.6209 21.3332 15.3045 21.2052 15.0494 20.9492C14.7934 20.6941 14.6654 20.3777 14.6654 19.9999V10.4666L12.1654 12.9666C11.8987 13.2332 11.5876 13.3666 11.232 13.3666C10.8765 13.3666 10.5543 13.2221 10.2654 12.9332C9.9987 12.6666 9.87114 12.3497 9.8827 11.9826C9.89336 11.6163 10.0209 11.311 10.2654 11.0666L15.0654 6.26657C15.1987 6.13324 15.3431 6.03857 15.4987 5.98257C15.6543 5.92746 15.8209 5.8999 15.9987 5.8999C16.1765 5.8999 16.3431 5.92746 16.4987 5.98257C16.6543 6.03857 16.7987 6.13324 16.932 6.26657L21.732 11.0666C21.9987 11.3332 22.1263 11.6497 22.1147 12.0159C22.104 12.383 21.9765 12.6888 21.732 12.9332C21.4654 13.1999 21.1489 13.3386 20.7827 13.3492C20.4156 13.3608 20.0987 13.2332 19.832 12.9666L17.332 10.4666V19.9999C17.332 20.3777 17.2045 20.6941 16.9494 20.9492C16.6934 21.2052 16.3765 21.3332 15.9987 21.3332ZM7.9987 26.6666C7.26536 26.6666 6.63781 26.4057 6.11603 25.8839C5.59336 25.3612 5.33203 24.7332 5.33203 23.9999V21.3332C5.33203 20.9555 5.45959 20.6386 5.7147 20.3826C5.9707 20.1275 6.28759 19.9999 6.66536 19.9999C7.04314 19.9999 7.36003 20.1275 7.61603 20.3826C7.87114 20.6386 7.9987 20.9555 7.9987 21.3332V23.9999H23.9987V21.3332C23.9987 20.9555 24.1267 20.6386 24.3827 20.3826C24.6378 20.1275 24.9543 19.9999 25.332 19.9999C25.7098 19.9999 26.0263 20.1275 26.2814 20.3826C26.5374 20.6386 26.6654 20.9555 26.6654 21.3332V23.9999C26.6654 24.7332 26.4045 25.3612 25.8827 25.8839C25.36 26.4057 24.732 26.6666 23.9987 26.6666H7.9987Z" fill="#969696"/>
  </g>
</svg>
  